<?xml version="1.0" encoding="UTF-8" standalone="no"?><!DOCTYPE svg PUBLIC "-//W3C//DTD SVG 1.1//EN" "http://www.w3.org/Graphics/SVG/1.1/DTD/svg11.dtd"><svg width="100%" height="100%" viewBox="0 0 1197 371" version="1.1" xmlns="http://www.w3.org/2000/svg" xmlns:xlink="http://www.w3.org/1999/xlink" xml:space="preserve" xmlns:serif="http://www.serif.com/" style="fill-rule:evenodd;clip-rule:evenodd;stroke-linejoin:round;stroke-miterlimit:2;"><path d="M405.192,153.128c-11.193,92.496 -208.481,152.09 -282.953,43.718c-50.902,-74.073 52.881,-148.688 150.102,-107.315c62.607,26.643 60.801,95.06 -47.986,88.3c-3.237,-0.201 -4.48,-1.171 -4.476,-4.626c0.017,-12.287 -0.103,-12.018 12.189,-12.354c23.646,-0.646 45.888,-3.011 56.029,-24.365c4.861,-10.237 -31.816,-26.894 -49.073,-29.626c-66.559,-10.537 -120.874,30.069 -97.091,71.322c24.719,42.876 99.195,49.225 150.166,37.065c121.161,-28.906 111.598,-141.472 -5.106,-175.666c-146.205,-42.838 -299.326,51.986 -249.026,174.661c32.507,79.279 144.638,158.768 344.795,97.448c7.059,-2.163 -0.353,-1.494 -3.602,-11.666c-20.532,-64.274 40.098,-114.323 84.49,-130.925c7.617,-2.849 7.689,3.052 17.342,-12.012c38.473,-60.036 136.731,-89.548 231.729,-51.219c2.137,0.862 3.67,0.462 5.586,-0.675c390.148,-231.449 603.401,110.688 399.211,228.997c-74.253,43.023 -174.9,25.202 -253.455,-10.889c-35.202,-16.173 -39.285,-20.202 -45.637,-14.773c-114.832,98.156 -256.543,49.841 -257.543,50.172c-37.978,12.552 -113.172,9.502 -152.57,-19.701c-4.05,-3.002 -19.806,6.311 -70.069,17.234c-17.248,3.748 -103.656,10.715 -175.463,-7.992c-95.665,-24.922 -166.579,-95.744 -162.623,-191.083c3.384,-81.558 102.224,-151.463 192.154,-156.613c111.29,-6.373 226.129,43.096 212.88,152.583Zm357.802,-23.934c-0,-0 34.922,16.276 52.225,28.922c2.923,2.137 4.156,-1.66 31.698,-14.454c116.049,-53.909 223.604,-12.071 243.171,50.151c19.206,61.075 -70.149,104.231 -161.575,55.917c-5.124,-2.708 -0.252,-0.348 -75.162,39.366c226.494,114.391 341.519,-21.591 311.068,-108.512c-45.868,-130.924 -195.324,-141.901 -325.771,-89.44c-26.183,10.53 -48.488,28.951 -75.654,38.05Zm91.459,53.073c16.206,5.384 55.693,34.561 60.672,32.545c73.637,-29.828 123.628,-15.487 118.323,-4.946c-12.827,25.489 2.727,-5.355 -75.429,23.763c-0.542,0.202 -0.905,0.884 -1.351,1.342c1.719,1.209 34.413,12.47 55.619,9.883c106.469,-12.989 46.553,-103.418 -52.735,-94.953c-37.135,3.166 -70.597,17.248 -105.099,32.366Zm-289.941,146.811c30.359,-9.417 156.865,-94.927 149.153,-96.98c-83.601,-22.262 -42.692,-38.229 -95.034,-4.109c-44.527,29.025 -48.401,36.304 -104.958,63.525c-1.769,0.851 -3.091,1.77 -0.649,3.136c12.655,7.078 28.385,26.116 51.488,34.428Zm48.633,12.35c111.812,9.441 143.781,-34.634 191.348,-53.948c3.551,-1.442 0.263,-2.291 -0.719,-2.802c-88.848,-46.167 -20.289,-34.713 -190.629,56.75Zm-98.899,-184.4c-0,-0 62.07,-0.238 101.555,13.455c3.971,1.377 0.249,2.968 64.498,-42.934c9.469,-6.765 -40.156,-13.509 -67.895,-11.531c-37.574,2.678 -68.598,19.898 -98.158,41.01Zm368.418,71.688c-0.407,-1.901 -1.981,-2.247 -3.145,-2.981c-14.74,-9.299 -30.804,-16.534 -44.01,-28.215c-2.699,-2.387 1.096,-3.41 -59.282,38.373c-4.856,3.361 -4.43,1.059 44.862,33.348c5.315,3.481 60.573,-39.711 61.575,-40.525Zm-407.348,38.086c-23.419,-12.311 -13.45,-65.459 -13.701,-67.566c-21.583,5.827 -74.872,50.824 -55.469,98.571c1.456,3.582 -4.045,8.667 69.17,-31.005Zm17.559,-9.659c0.434,5.365 95.567,-65.08 96.518,-66.081c-5.385,-2.607 -90.972,-16.247 -95.23,0.335c-9.99,38.907 -2.819,46.817 -1.288,65.746Zm300.143,-83.436c-14.357,-10.957 -33.341,-18.226 -50.227,-27.374c-2.986,-1.617 1.29,-3.153 -63.127,41.044c-4.373,3.001 -0.039,2.553 15.752,9.17c52.241,21.89 27.499,27.518 97.602,-22.84Zm-271.182,162.288c-28.964,-19.006 -29.004,-32.858 -36.056,-29.292c-43.138,21.812 -48.682,18.871 -41.76,21.926c36.823,16.249 88.796,14.571 77.816,7.366Z" style="fill-rule:nonzero;"/></svg>