<?xml version="1.0" encoding="UTF-8" standalone="no"?><!DOCTYPE svg PUBLIC "-//W3C//DTD SVG 1.1//EN" "http://www.w3.org/Graphics/SVG/1.1/DTD/svg11.dtd"><svg width="100%" height="100%" viewBox="0 0 1198 371" version="1.1" xmlns="http://www.w3.org/2000/svg" xmlns:xlink="http://www.w3.org/1999/xlink" xml:space="preserve" xmlns:serif="http://www.serif.com/" style="fill-rule:evenodd;clip-rule:evenodd;stroke-linejoin:round;stroke-miterlimit:2;"><path d="M802.114,341.547c-6.42,-1.981 -11.546,-3.169 -18.401,1.539c-35.555,24.42 -110.285,28.713 -146.723,16.122c-2.957,-1.022 -143.85,47.725 -257.566,-50.05c-10.583,-9.099 -22.588,9.564 -90.954,32.625c-82.147,27.709 -177.907,29.343 -242.77,-32.653c-152.361,-145.628 97.708,-417.437 432.911,-203.728c2.36,1.505 4.209,1.636 6.759,0.622c164.258,-65.316 237.489,62.16 238.489,62.214c39.604,2.171 128.337,75.463 91.647,137.384c-4.781,8.069 -0.014,6.536 3.803,7.654c45.655,13.376 92.072,22.697 139.817,21.884c103.99,-1.77 188.048,-68.262 206.69,-137.391c30.462,-112.959 -116.419,-193.172 -236.619,-162.689c-118.126,29.958 -132.349,107.409 -86.176,148.301c49.119,43.5 130.3,47.421 179.359,23.885c107.044,-51.356 -25.121,-145.675 -109.21,-79.423c-11.35,8.943 4.923,27.711 30.302,31.614c30.584,4.703 34.623,-1.737 34.525,6.418c-0.144,11.947 0.014,11.973 -12.213,12.858c-86.816,6.287 -97.031,-47.886 -65.263,-74.152c31.61,-26.135 104.201,-38.345 152.15,-7.071c52.272,34.094 37.372,85.609 13.923,111.105c-66.041,71.808 -193.608,58.143 -258.132,-17.988c-28.369,-33.472 -37.375,-132.996 88.871,-177.134c106.445,-37.216 250.72,3.179 293.309,113.477c31.73,82.176 -36.767,239.667 -266.025,233.718c-20.711,-0.539 -39.551,6.457 -122.503,-19.141Zm-366.226,-211.873c-6.88,-2.962 -13.435,-3.266 -18.987,-6.579c-357.805,-213.49 -522.846,177.693 -255.542,210.408c83.298,10.195 181.709,-43.28 182.726,-44.084c0,-0 -22.16,-10.674 -69.371,-38.735c-2.241,-1.332 -3.814,-1.391 -6.237,-0.196c-110.789,54.617 -194.004,-10.838 -152.586,-74.646c34.67,-53.413 137.518,-85.437 260.958,-18.342c8.187,4.45 2.877,-2.366 59.039,-27.826Zm-93.258,52.695c-31.412,-13.355 -64.168,-27.706 -100.613,-31.634c-50.127,-5.403 -119.988,19.91 -111.416,63.626c6.694,34.137 67.354,36.824 99.793,24.467c3.473,-1.323 7.124,-2.181 11.819,-3.593c-72.763,-28.211 -69.697,-3.047 -77.812,-24.292c-3.87,-10.134 32.371,-24.803 105.279,-0.033c27.137,9.22 30.807,-10.435 72.95,-28.541Zm344.162,111.027c-13.719,-7.24 -28.302,-12.519 -41.492,-20.952c-96.725,-61.838 -93.09,-66.016 -100.847,-63.047c-0.002,0.001 -62.693,24.459 -62.693,24.459c1.065,1.117 100.711,73.645 141.865,92.216c10.545,4.76 22.694,2.253 63.167,-32.676Zm-102.4,48.209c-15.226,-7.793 -35.552,-17.81 -55.254,-30.479c-77.185,-49.634 -75.426,-57.131 -83.347,-52.964c-57.457,30.222 -57.253,27.898 -51.348,30.391c43.488,18.35 87.921,65.864 189.949,53.052Zm99.279,-183.429c0.14,-0.569 0.28,-1.139 0.421,-1.708c-14.135,-5.319 -73.61,-62.266 -166.629,-32.226c-3.935,1.271 -3.032,1.91 -0.558,3.67c102.334,72.824 19.531,30.264 166.766,30.264Zm19.966,34.233c-4.042,-16.298 -76.743,-5.016 -93.295,-1.999c-5.38,0.98 -9.218,-2.864 90.825,67.744c1.451,1.025 3.274,3.07 3.644,-0.81c2.007,-21.075 8.601,-25.526 -1.174,-64.935Zm-280.022,46.503c-0.344,-2.401 -17.781,-12.202 -53.113,-38.039c-7.963,-5.823 -3.419,-4.501 -52.786,25.527c-5.359,3.259 -9.779,-2.296 53.212,43.637c4.106,2.994 51.686,-30.404 52.687,-31.125Zm298.815,27.927c0.835,1.656 37.301,20.887 65.835,34.138c4.467,2.074 11.181,-20.908 5.177,-39.642c-14.258,-44.484 -56.291,-61.883 -57.314,-61.413c-1.002,0.461 9.828,58.19 -13.698,66.917Zm-265.896,-120.734c-1,0.408 -36.176,17.127 -49.203,25.734c-6.81,4.499 2.127,1.742 44.725,36.2c11.38,9.205 5.781,7.598 64.572,-16.668c5.164,-2.132 9.365,2.188 -57.194,-43.632c-0.926,-0.637 -1.965,-1.112 -2.9,-1.634Zm297.416,179.722c-46.195,-18.37 -43.904,-21.598 -46.572,-18.441c-15.783,18.674 -34.391,31.777 -34.391,31.777c0.902,7.708 99.032,-6.151 80.963,-13.336Z" style="fill-rule:nonzero;"/></svg>