<?xml version="1.0" encoding="UTF-8" standalone="no"?>
<!DOCTYPE svg PUBLIC "-//W3C//DTD SVG 1.1//EN" "http://www.w3.org/Graphics/SVG/1.1/DTD/svg11.dtd">
<svg width="100%" height="100%" viewBox="0 0 151 59" version="1.1" xmlns="http://www.w3.org/2000/svg" xmlns:xlink="http://www.w3.org/1999/xlink" xml:space="preserve" xmlns:serif="http://www.serif.com/" style="fill-rule:evenodd;clip-rule:evenodd;stroke-linecap:round;stroke-linejoin:round;stroke-miterlimit:1.5;">
    <g transform="matrix(1,0,0,1,-194.732,-117.189)">
        <path d="M196.957,175.336C192.312,170.95 198.41,154.608 199.417,150.674C201.678,141.836 204.063,131.242 210.017,123.944C223.765,107.094 231.862,127.958 221.999,143.3C218.901,148.12 214.26,151.971 210.017,155.744" style="fill:none;stroke:black;stroke-width:1px;"/>
        <path d="M224.072,156.742C215.492,155.792 209.465,174.196 223.382,171.413C226.682,170.753 230.653,167.01 232.138,164.039C233.465,161.385 228.912,155.744 228.912,155.744C228.912,155.744 237.396,155.681 241.355,154.361C248.395,152.015 265.144,142.169 261.172,132.24C254.896,116.55 249.01,151.553 247.807,156.665C247.732,156.987 245.567,170.094 244.12,168.648C243.817,168.345 246.278,165.598 246.425,165.422C248.683,162.712 258.785,154.767 263.016,157.587C266.343,159.806 259.077,165.254 262.094,167.265C265.536,169.56 286.305,161.225 292.972,159.891C303.168,157.852 296.766,169.314 304.954,170.952C311.588,172.279 315.34,166.698 321.084,165.422C328.685,163.733 337.285,166.343 345.049,166.343" style="fill:none;stroke:black;stroke-width:1px;"/>
        <g transform="matrix(1,0,0,1,-12.4433,9.04564)">
            <path d="M338.1,140.917C343.481,133.8 349.13,132.487 357.492,130.396" style="fill:none;stroke:black;stroke-width:1px;"/>
        </g>
    </g>
</svg>
